# This file uses centimeters as units for non-parametric coordinates.

mtllib pyramid.mtl
v -1.404153 -0.304264 -0.979447
v 0.011272 0.724484 -0.010813
v 1.424132 -0.325311 -0.960422
v 0.008707 -1.354059 -1.929056
v -1.424132 -1.660586 0.490244
v -0.008706 -0.631838 1.458878
v 1.404153 -1.681633 0.509269
v -0.011272 -2.710381 -0.459364
vt 0.748573 0.750412
vt 0.749279 0.501284
vt 0.999110 0.501077
vt 0.999455 0.750380
vt 0.250471 0.500702
vt 0.249682 0.749677
vt 0.001085 0.750380
vt 0.001517 0.499994
vt 0.499422 0.500239
vt 0.500149 0.750166
vt 0.748355 0.998230
vt 0.500193 0.998728
vt 0.498993 0.250415
vt 0.748953 0.250920
vn -0.707712 -0.514374 -0.484317
vn -0.707712 -0.514374 -0.484317
vn -0.707712 -0.514374 -0.484317
vn -0.707712 -0.514374 -0.484317
vn -0.707712 -0.514374 -0.484317
vn -0.707712 -0.514374 -0.484317
vn 0.706430 -0.524898 -0.474804
vn 0.706430 -0.524898 -0.474804
vn 0.706430 -0.524898 -0.474804
vn 0.706430 -0.524898 -0.474804
vn 0.706430 -0.524898 -0.474804
vn 0.706430 -0.524898 -0.474804
vn 0.707712 0.514374 0.484317
vn 0.707712 0.514374 0.484317
vn 0.707712 0.514374 0.484317
vn 0.707713 0.514373 0.484316
vn 0.707713 0.514373 0.484316
vn 0.707713 0.514373 0.484316
vn -0.706430 0.524898 0.474804
vn -0.706430 0.524898 0.474804
vn -0.706430 0.524898 0.474804
vn -0.706429 0.524898 0.474805
vn -0.706429 0.524898 0.474805
vn -0.706429 0.524898 0.474805
vn -0.009990 -0.678161 0.734846
vn -0.009990 -0.678161 0.734846
vn -0.009990 -0.678161 0.734846
vn -0.009990 -0.678161 0.734846
vn -0.009990 -0.678161 0.734846
vn -0.009990 -0.678161 0.734846
vn 0.009990 0.678161 -0.734846
vn 0.009990 0.678161 -0.734846
vn 0.009990 0.678161 -0.734846
vn 0.009990 0.678161 -0.734846
vn 0.009990 0.678161 -0.734846
vn 0.009990 0.678161 -0.734846
usemtl initialShadingGroup
f 5/1/1 1/2/2 4/3/3
f 5/1/4 4/3/5 8/4/6
f 3/5/7 7/6/8 8/7/9
f 3/5/10 8/7/11 4/8/12
f 2/9/13 6/10/14 3/5/15
f 6/10/16 7/6/17 3/5/18
f 1/2/19 5/1/20 2/9/21
f 5/1/22 6/10/23 2/9/24
f 5/1/25 8/11/26 6/10/27
f 8/11/28 7/12/29 6/10/30
f 1/2/31 2/9/32 3/13/33
f 1/2/34 3/13/35 4/14/36
